<?xml version="1.0" encoding="UTF-8" standalone="no"?>
<!DOCTYPE svg PUBLIC "-//W3C//DTD SVG 1.1//EN" "http://www.w3.org/Graphics/SVG/1.1/DTD/svg11.dtd">
<svg xmlns="http://www.w3.org/2000/svg" version="1.1" viewBox="0.00 0.00 670.00 873.00">
<g stroke-width="2.00" fill="none" stroke-linecap="butt">
<path stroke="#93be87" vector-effect="non-scaling-stroke" d="
  M 126.43 330.29
  C 113.61 351.24 108.08 374.32 107.10 399.25
  C 105.58 438.31 108.75 473.51 123.39 510.28
  Q 123.50 510.58 123.15 511.12"
/>
<path stroke="#21ac9f" vector-effect="non-scaling-stroke" d="
  M 583.90 445.59
  Q 575.36 431.07 565.11 417.82
  A 0.38 0.37 -61.6 0 0 564.44 418.02
  C 561.23 460.34 545.83 501.65 515.62 532.02
  C 499.49 548.24 478.40 559.10 456.36 565.36
  Q 424.67 574.35 392.94 578.20
  C 364.96 581.59 335.74 580.81 307.75 577.73
  C 257.62 572.21 229.70 567.89 189.82 568.24"
/>
</g>
<circle fill="#fdce2a" cx="523.62" cy="145.89" r="131.94"/>
<path fill="#fdce2a" d="
  M 126.43 330.29
  C 113.61 351.24 108.08 374.32 107.10 399.25
  C 105.58 438.31 108.75 473.51 123.39 510.28
  Q 123.50 510.58 123.15 511.12
  C 120.46 508.83 117.55 506.62 115.30 503.90
  Q 48.97 423.69 26.08 322.29
  C 18.55 288.93 17.16 254.45 20.47 219.76
  C 29.84 121.64 93.70 27.59 198.23 15.21
  C 273.46 6.30 353.81 58.88 358.14 138.43
  C 360.27 177.42 344.52 217.57 312.04 240.81
  C 295.57 252.60 276.42 259.79 256.95 264.99
  Q 231.37 271.81 205.74 278.47
  Q 196.72 280.81 181.76 286.58
  C 159.12 295.32 139.38 309.44 126.43 330.29
  Z"
/>
<path fill="#28aee4" d="
  M 126.43 330.29
  Q 144.70 342.86 160.03 349.00
  Q 218.07 372.23 280.26 370.46
  C 309.29 369.63 339.14 365.57 368.57 362.54
  C 396.08 359.70 422.46 357.95 449.00 359.97
  C 504.67 364.22 560.53 392.47 583.90 445.59
  Q 575.36 431.07 565.11 417.82
  A 0.38 0.37 -61.6 0 0 564.44 418.02
  C 561.23 460.34 545.83 501.65 515.62 532.02
  C 499.49 548.24 478.40 559.10 456.36 565.36
  Q 424.67 574.35 392.94 578.20
  C 364.96 581.59 335.74 580.81 307.75 577.73
  C 257.62 572.21 229.70 567.89 189.82 568.24
  Q 153.87 543.30 124.15 511.36
  Q 123.94 511.13 123.15 511.12
  Q 123.50 510.58 123.39 510.28
  C 108.75 473.51 105.58 438.31 107.10 399.25
  C 108.08 374.32 113.61 351.24 126.43 330.29
  Z"
/>
<path fill="#19a959" d="
  M 583.90 445.59
  Q 589.23 455.94 592.42 463.57
  Q 615.19 518.05 600.36 575.49
  Q 594.78 597.12 585.39 617.41
  C 572.52 645.19 558.08 671.75 539.18 695.95
  Q 520.91 719.34 500.02 740.37
  C 446.28 794.50 376.59 833.73 302.31 851.41
  Q 231.50 868.26 157.74 860.73
  Q 119.84 856.86 88.10 837.97
  C 35.79 806.83 4.03 742.27 18.75 681.59
  C 32.37 625.47 82.22 586.29 137.02 574.26
  Q 163.97 568.35 189.82 568.24
  C 229.70 567.89 257.62 572.21 307.75 577.73
  C 335.74 580.81 364.96 581.59 392.94 578.20
  Q 424.67 574.35 456.36 565.36
  C 478.40 559.10 499.49 548.24 515.62 532.02
  C 545.83 501.65 561.23 460.34 564.44 418.02
  A 0.38 0.37 -61.6 0 1 565.11 417.82
  Q 575.36 431.07 583.90 445.59
  Z"
/>
</svg>
