<?xml version="1.0" encoding="UTF-8" standalone="no"?>
<!DOCTYPE svg PUBLIC "-//W3C//DTD SVG 1.1//EN" "http://www.w3.org/Graphics/SVG/1.1/DTD/svg11.dtd">
<svg xmlns="http://www.w3.org/2000/svg" version="1.1" viewBox="0.00 0.00 1460.00 1435.00">
<path fill="#1e88e5" d="
  M 582.55 158.82
  C 407.92 223.27 271.31 375.36 250.06 564.00
  C 243.86 619.02 247.56 678.87 257.87 731.50
  Q 284.21 865.90 380.66 961.22
  C 402.14 982.44 424.51 1001.98 449.84 1021.64
  Q 476.94 1042.67 504.98 1062.83
  A 0.81 0.81 0.0 0 1 504.68 1064.28
  Q 503.89 1064.45 502.74 1064.05
  C 321.49 999.98 203.05 829.35 192.57 639.75
  C 182.68 460.52 264.89 292.27 406.68 183.88
  C 494.88 116.46 601.11 76.07 711.01 66.15
  C 925.57 46.78 1131.77 141.81 1258.59 315.45
  C 1333.15 417.55 1375.05 544.69 1372.38 671.10
  Q 1372.37 671.54 1371.93 671.56
  Q 1371.78 671.57 1371.63 671.55
  Q 1371.09 671.47 1371.02 670.93
  C 1350.57 518.51 1278.85 376.14 1165.03 272.23
  C 1084.88 199.06 983.24 148.39 874.93 130.70
  Q 725.06 106.22 582.55 158.82
  Z"
/>
<path fill="#16a75c" d="
  M 579.97 1231.55
  C 448.93 1211.98 328.39 1145.10 239.53 1047.33
  C 165.40 965.77 113.57 863.05 93.29 754.44
  Q 65.35 604.78 109.79 459.53
  C 154.54 313.23 253.40 189.10 386.43 114.06
  Q 386.88 113.81 387.05 114.30
  L 387.28 114.93
  Q 387.48 115.51 386.99 115.89
  C 239.09 229.86 138.65 406.72 131.90 595.24
  C 127.04 730.90 170.59 865.09 255.51 971.19
  C 351.43 1091.03 495.13 1171.42 649.72 1177.76
  C 742.04 1181.55 830.30 1159.23 909.41 1111.99
  C 956.17 1084.06 999.98 1050.74 1036.46 1010.05
  Q 1105.41 933.17 1132.69 832.77
  C 1146.71 781.20 1154.13 724.84 1159.51 669.95
  A 0.83 0.83 0.0 0 1 1160.51 669.22
  Q 1161.53 669.44 1161.77 670.80
  C 1200.79 885.45 1083.86 1092.99 890.68 1185.19
  Q 742.65 1255.85 579.97 1231.55
  Z"
/>
<path fill="#ffd026" d="
  M 1117.71 1074.72
  C 1245.42 913.78 1278.71 684.54 1187.67 498.04
  C 1145.59 411.84 1080.80 342.29 997.29 295.31
  C 947.31 267.20 894.82 245.60 838.48 234.12
  C 770.12 220.19 701.80 223.89 634.79 242.45
  Q 585.34 256.15 538.14 276.27
  Q 512.86 287.04 487.72 298.14
  Q 486.88 298.51 486.46 298.31
  A 0.89 0.89 0.0 0 1 486.27 296.83
  C 583.36 213.95 709.17 175.98 836.00 188.63
  C 985.34 203.52 1120.45 287.48 1205.18 409.83
  C 1297.59 543.27 1323.47 713.26 1284.57 869.76
  C 1245.94 1025.16 1143.83 1161.95 1005.63 1243.09
  C 914.40 1296.64 810.57 1326.75 704.27 1328.18
  Q 537.28 1330.43 393.08 1246.57
  A 1.36 1.36 0.0 0 1 392.43 1245.13
  Q 392.53 1244.62 393.15 1244.58
  Q 393.47 1244.56 393.96 1244.76
  C 539.76 1304.61 705.75 1313.28 855.21 1261.12
  Q 1013.65 1205.83 1117.71 1074.72
  Z"
/>
<path fill="#000000" d="
  M 741.37 480.41
  L 889.20 516.86
  Q 889.71 516.99 889.43 517.43
  L 875.41 539.60
  A 1.36 1.35 -73.6 0 1 874.27 540.23
  L 581.74 540.23
  A 2.31 2.27 73.5 0 1 579.81 539.16
  L 566.33 517.78
  Q 565.83 516.99 566.74 516.77
  L 713.62 480.53
  A 1.89 1.88 -4.9 0 0 715.05 478.84
  Q 720.66 405.00 726.25 332.00
  Q 726.79 325.05 726.84 320.77
  C 726.85 320.24 727.18 319.68 727.60 319.45
  A 0.73 0.72 73.8 0 1 728.68 320.05
  Q 728.79 322.43 728.98 324.99
  Q 734.41 399.63 740.12 474.25
  Q 740.40 477.90 740.77 479.78
  Q 740.87 480.28 741.37 480.41
  Z"
/>
<path fill="#000000" d="
  M 445.16 570.18
  L 1010.39 570.18
  A 0.40 0.40 0.0 0 1 1010.73 570.80
  L 971.92 631.56
  A 0.40 0.40 0.0 0 1 971.58 631.74
  L 483.85 631.74
  A 0.40 0.40 0.0 0 1 483.51 631.55
  L 444.82 570.79
  A 0.40 0.40 0.0 0 1 445.16 570.18
  Z"
/>
<path fill="#000000" d="
  M 991.64 714.49
  L 463.90 714.49
  A 0.33 0.33 0.0 0 0 463.57 714.82
  L 463.60 864.38
  A 0.33 0.33 0.0 0 1 462.99 864.55
  L 336.63 664.03
  A 0.33 0.33 0.0 0 1 336.91 663.52
  L 1118.61 663.52
  A 0.33 0.33 0.0 0 1 1118.89 664.03
  L 992.55 864.51
  A 0.33 0.33 0.0 0 1 991.94 864.34
  L 991.97 714.82
  A 0.33 0.33 0.0 0 0 991.64 714.49
  Z"
/>
<rect fill="#000000" x="505.21" y="769.68" width="53.82" height="92.08" rx="0.58"/>
<rect fill="#000000" x="700.70" y="769.66" width="54.08" height="92.10" rx="1.01"/>
<rect fill="#000000" x="798.53" y="769.68" width="53.98" height="92.08" rx="0.59"/>
<rect fill="#000000" x="896.49" y="769.67" width="53.78" height="92.10" rx="0.52"/>
<rect fill="#000000" x="603.00" y="769.68" width="54.00" height="92.10" rx="0.54"/>
</svg>
